<svg width="30" height="30" viewBox="0 0 30 30" fill="none" xmlns="http://www.w3.org/2000/svg">
<g clip-path="url(#clip0_101_78)">
<path d="M15 2.5C8.1 2.5 2.5 8.1 2.5 15C2.5 21.9 8.1 27.5 15 27.5C21.9 27.5 27.5 21.9 27.5 15C27.5 8.1 21.9 2.5 15 2.5ZM15 20.625C11.8875 20.625 9.375 18.1125 9.375 15C9.375 11.8875 11.8875 9.375 15 9.375C18.1125 9.375 20.625 11.8875 20.625 15C20.625 18.1125 18.1125 20.625 15 20.625ZM15 13.75C14.3125 13.75 13.75 14.3125 13.75 15C13.75 15.6875 14.3125 16.25 15 16.25C15.6875 16.25 16.25 15.6875 16.25 15C16.25 14.3125 15.6875 13.75 15 13.75Z" fill="#F5F5F5"/>
</g>
<defs>
<clipPath id="clip0_101_78">
<rect width="30" height="30" fill="white"/>
</clipPath>
</defs>
</svg>
