<svg xmlns="http://www.w3.org/2000/svg" width="22" height="20" viewBox="0 0 22 20" fill="none">
<path fill-rule="evenodd" clip-rule="evenodd" d="M11.0001 0.25C10.4507 0.25 9.91382 0.414585 9.45879 0.722534C9.00376 1.03048 8.65141 1.46768 8.44717 1.97775C8.24293 2.48782 8.19616 3.04737 8.31289 3.58427C8.42963 4.12117 8.70451 4.61079 9.10211 4.99L8.90211 5.346L7.10511 8.569C6.99054 8.7856 6.86607 8.99682 6.73211 9.202C6.71337 9.22863 6.69335 9.25433 6.67211 9.279C6.6445 9.261 6.6178 9.24164 6.59211 9.221C6.40676 9.06026 6.22891 8.89108 6.05911 8.714L5.97911 8.635C5.6956 8.34636 5.40484 8.06494 5.10711 7.791C5.2642 7.37227 5.29295 6.91623 5.18968 6.48109C5.08641 6.04595 4.8558 5.65146 4.52731 5.34798C4.19881 5.0445 3.78732 4.8458 3.34538 4.77724C2.90344 4.70869 2.4511 4.77339 2.0461 4.96309C1.6411 5.1528 1.30182 5.45889 1.07158 5.84229C0.841333 6.2257 0.730571 6.66902 0.75343 7.11566C0.77629 7.5623 0.931734 7.992 1.19992 8.34989C1.4681 8.70778 1.83686 8.97764 2.25911 9.125L2.26911 9.298C2.29311 9.623 2.33511 10.012 2.38211 10.456L2.56711 12.173L2.65411 13.003C2.76611 14.086 2.87411 15.121 3.03411 15.994C3.13411 16.546 3.26211 17.066 3.43811 17.517C3.61311 17.965 3.85511 18.392 4.21211 18.712C4.84211 19.276 5.60211 19.522 6.50811 19.638C7.38311 19.75 8.48611 19.75 9.86011 19.75H12.1401C13.5141 19.75 14.6171 19.75 15.4921 19.638C16.3991 19.522 17.1581 19.276 17.7881 18.712C18.1451 18.392 18.3871 17.965 18.5621 17.517C18.7381 17.066 18.8661 16.546 18.9671 15.994C19.1271 15.121 19.2341 14.086 19.3461 13.004L19.4331 12.174L19.6181 10.457C19.6651 10.012 19.7081 9.623 19.7301 9.298L19.7411 9.125C20.1634 8.97764 20.5321 8.70778 20.8003 8.34989C21.0685 7.992 21.2239 7.5623 21.2468 7.11566C21.2696 6.66902 21.1589 6.2257 20.9286 5.84229C20.6984 5.45889 20.3591 5.1528 19.9541 4.96309C19.5491 4.77339 19.0968 4.70869 18.6548 4.77724C18.2129 4.8458 17.8014 5.0445 17.4729 5.34798C17.1444 5.65146 16.9138 6.04595 16.8105 6.48109C16.7073 6.91623 16.736 7.37227 16.8931 7.791C16.6291 8.028 16.3391 8.317 16.0201 8.635L15.9411 8.714C15.6831 8.972 15.5291 9.124 15.4081 9.221C15.3824 9.24164 15.3557 9.261 15.3281 9.279C15.3069 9.25433 15.2868 9.22863 15.2681 9.202C15.1341 8.99682 15.0097 8.7856 14.8951 8.569L13.0981 5.346L12.8981 4.99C13.2957 4.61079 13.5706 4.12117 13.6873 3.58427C13.8041 3.04737 13.7573 2.48782 13.5531 1.97775C13.3488 1.46768 12.9965 1.03048 12.5414 0.722534C12.0864 0.414585 11.5496 0.25 11.0001 0.25ZM9.75011 3C9.75011 2.66848 9.88181 2.35054 10.1162 2.11612C10.3506 1.8817 10.6686 1.75 11.0001 1.75C11.3316 1.75 11.6496 1.8817 11.884 2.11612C12.1184 2.35054 12.2501 2.66848 12.2501 3C12.2501 3.33152 12.1184 3.64946 11.884 3.88388C11.6496 4.1183 11.3316 4.25 11.0001 4.25C10.6686 4.25 10.3506 4.1183 10.1162 3.88388C9.88181 3.64946 9.75011 3.33152 9.75011 3ZM10.2051 6.09C10.2851 5.94533 10.3598 5.812 10.4291 5.69C10.8057 5.76845 11.1945 5.76845 11.5711 5.69C11.6404 5.812 11.7151 5.94533 11.7951 6.09L13.6021 9.33C13.7571 9.608 13.9001 9.865 14.0401 10.064C14.1891 10.275 14.3911 10.509 14.7021 10.646C14.9701 10.764 15.2661 10.805 15.5561 10.765C15.8921 10.718 16.1511 10.549 16.3521 10.387C16.5401 10.234 16.7491 10.026 16.9761 9.801L17.0001 9.777C17.3751 9.403 17.6501 9.132 17.8601 8.94C17.9801 9.01067 18.1064 9.07 18.2391 9.118L18.2341 9.192C18.2141 9.486 18.1741 9.849 18.1241 10.308L17.9421 12.013L17.8501 12.883C17.7801 13.553 17.7161 14.178 17.6411 14.75H4.35911C4.28098 14.1283 4.21098 13.5056 4.14911 12.882L4.05911 12.012L3.87511 10.308C3.83014 9.91203 3.79213 9.5153 3.76111 9.118C3.89444 9.06933 4.02111 9.01 4.14111 8.94C4.35111 9.132 4.62511 9.403 5.00111 9.777L5.02411 9.801C5.25111 10.026 5.46011 10.234 5.64811 10.387C5.84911 10.549 6.10811 10.718 6.44411 10.765C6.73411 10.805 7.03011 10.764 7.29811 10.645C7.60811 10.509 7.81211 10.275 7.96011 10.064C8.11768 9.82608 8.26384 9.58081 8.39811 9.329L10.2051 6.09ZM4.61811 16.25C4.68278 16.526 4.75511 16.766 4.83511 16.97C4.96511 17.3 5.09611 17.49 5.21211 17.594C5.52911 17.877 5.95111 18.054 6.69911 18.15C7.46711 18.249 8.47411 18.25 9.91211 18.25H12.0881C13.5261 18.25 14.5331 18.249 15.3011 18.15C16.0491 18.055 16.4711 17.877 16.7881 17.594C16.9041 17.49 17.0361 17.3 17.1651 16.971C17.2451 16.7663 17.3174 16.526 17.3821 16.25H4.61811ZM2.25011 7C2.25012 6.85205 2.29389 6.70741 2.37591 6.58427C2.45793 6.46114 2.57454 6.36501 2.71106 6.30799C2.84758 6.25097 2.99791 6.2356 3.14315 6.26382C3.28838 6.29204 3.42203 6.36258 3.52727 6.46657C3.63251 6.57056 3.70464 6.70335 3.73458 6.84824C3.76453 6.99313 3.75096 7.14364 3.69557 7.28083C3.64018 7.41802 3.54545 7.53577 3.42331 7.61925C3.30116 7.70273 3.15705 7.74822 3.00911 7.75H3.00011C2.8012 7.75 2.61043 7.67098 2.46978 7.53033C2.32913 7.38968 2.25011 7.19891 2.25011 7ZM18.2501 7C18.2501 6.85166 18.2941 6.70666 18.3765 6.58332C18.4589 6.45999 18.5761 6.36386 18.7131 6.30709C18.8501 6.25033 19.0009 6.23547 19.1464 6.26441C19.2919 6.29335 19.4255 6.36478 19.5304 6.46967C19.6353 6.57456 19.7068 6.7082 19.7357 6.85368C19.7646 6.99917 19.7498 7.14997 19.693 7.28701C19.6363 7.42406 19.5401 7.54119 19.4168 7.6236C19.2934 7.70601 19.1484 7.75 19.0001 7.75H18.9911C18.7935 7.74841 18.6046 7.6686 18.4657 7.52804C18.3268 7.38747 18.2493 7.1976 18.2501 7Z" fill="#FACC15"/>
</svg>