<svg width="22" height="22" viewBox="0 0 22 22" fill="none" xmlns="http://www.w3.org/2000/svg">
<path d="M9.00002 18C9.00031 17.0476 8.77385 16.1088 8.33938 15.2612C7.90491 14.4136 7.2749 13.6817 6.50147 13.1258C5.72803 12.57 4.83339 12.2063 3.89153 12.0648C2.94967 11.9233 1.98764 12.008 1.08502 12.312M16 7.00001C16 8.38718 16.4805 9.73153 17.3598 10.8044C18.2391 11.8773 19.4629 12.6125 20.823 12.885M17.318 3.24802C17.1274 3.48515 16.9552 3.73655 16.803 4.00002" stroke="#666276" stroke-linecap="round"/>
<path d="M15 15C15 15.2652 14.8946 15.5196 14.7071 15.7071C14.5196 15.8946 14.2652 16 14 16C13.7348 16 13.4804 15.8946 13.2929 15.7071C13.1054 15.5196 13 15.2652 13 15C13 14.7348 13.1054 14.4804 13.2929 14.2929C13.4804 14.1054 13.7348 14 14 14C14.2652 14 14.5196 14.1054 14.7071 14.2929C14.8946 14.4804 15 14.7348 15 15Z" stroke="#666276"/>
<path d="M12 7.5C12 7.00555 11.8534 6.5222 11.5787 6.11108C11.304 5.69995 10.9135 5.37952 10.4567 5.1903C9.99989 5.00108 9.49723 4.95157 9.01227 5.04804C8.52732 5.1445 8.08186 5.3826 7.73223 5.73223C7.3826 6.08186 7.1445 6.52732 7.04804 7.01227C6.95157 7.49723 7.00108 7.99989 7.1903 8.45671C7.37952 8.91352 7.69995 9.30397 8.11108 9.57867C8.5222 9.85338 9.00555 10 9.5 10" stroke="#666276" stroke-linecap="round"/>
<path d="M6 2.33801C7.51952 1.45891 9.2445 0.997307 11 1.00001C16.523 1.00001 21 5.47701 21 11C21 16.523 16.523 21 11 21C5.477 21 1 16.523 1 11C1 9.17901 1.487 7.47001 2.338 6.00001" stroke="#666276" stroke-linecap="round"/>
</svg>
