<svg width="24" height="24" viewBox="0 0 24 24" fill="none" xmlns="http://www.w3.org/2000/svg">
<path d="M0 12C0 10.142 0 9.21298 0.123117 8.43565C0.800832 4.15673 4.15673 0.800832 8.43565 0.123117C9.21298 0 10.142 0 12 0C13.858 0 14.787 0 15.5643 0.123117C19.8433 0.800832 23.1992 4.15673 23.8769 8.43565C24 9.21298 24 10.142 24 12C24 13.858 24 14.787 23.8769 15.5643C23.1992 19.8433 19.8433 23.1992 15.5643 23.8769C14.787 24 13.858 24 12 24C10.142 24 9.21298 24 8.43565 23.8769C4.15673 23.1992 0.800832 19.8433 0.123117 15.5643C0 14.787 0 13.858 0 12Z" fill="#16C7FF"/>
<path fill-rule="evenodd" clip-rule="evenodd" d="M7.84819 7.13691C6.76791 7.6305 5.97674 8.80519 5.97674 10.2058C5.97674 11.6364 6.56279 12.7395 7.40149 13.685C8.09367 14.4638 8.93107 15.1098 9.74763 15.7388C9.94167 15.8885 10.1344 16.0377 10.3239 16.1868C10.6664 16.457 10.9718 16.6934 11.2668 16.8659C11.5611 17.0378 11.7981 17.1166 12 17.1166C12.2019 17.1166 12.4389 17.0385 12.7332 16.8659C13.0282 16.6934 13.3336 16.457 13.6761 16.1868C13.8649 16.037 14.0583 15.8885 14.2524 15.7394C15.0689 15.1091 15.9063 14.4638 16.5985 13.685C17.4379 12.7395 18.0233 11.6364 18.0233 10.2058C18.0233 8.80584 17.2321 7.6305 16.1518 7.13691C15.1021 6.65701 13.6917 6.78398 12.3516 8.17682C12.3061 8.22409 12.2515 8.26168 12.191 8.28736C12.1306 8.31304 12.0656 8.32628 12 8.32628C11.9344 8.32628 11.8694 8.31304 11.809 8.28736C11.7485 8.26168 11.6939 8.22409 11.6484 8.17682C10.3083 6.78398 8.89786 6.65701 7.84819 7.13691ZM12 7.16036C10.4945 5.81245 8.80865 5.62361 7.44186 6.24808C6.00019 6.90901 5 8.44054 5 10.2065C5 11.9418 5.72279 13.2663 6.67153 14.3342C7.43079 15.1892 8.36 15.9048 9.18112 16.5364C9.36735 16.6797 9.54772 16.8191 9.71898 16.9545C10.053 17.2176 10.4112 17.4976 10.7739 17.7098C11.1366 17.9215 11.5507 18.094 12 18.094C12.4493 18.094 12.8634 17.9215 13.2261 17.7098C13.5895 17.4976 13.947 17.2176 14.281 16.9545C14.4594 16.814 14.6387 16.6746 14.8189 16.5364C15.6393 15.9048 16.5692 15.1885 17.3285 14.3342C18.2772 13.2663 19 11.9418 19 10.2065C19 8.44054 18.0005 6.90901 16.5581 6.24938C15.1913 5.62426 13.5055 5.8131 12 7.16036Z" fill="white"/>
</svg>
