<svg width="24" height="24" viewBox="0 0 24 24" fill="none" xmlns="http://www.w3.org/2000/svg">
<path d="M0 12C0 10.142 0 9.21298 0.123117 8.43565C0.800832 4.15673 4.15673 0.800832 8.43565 0.123117C9.21298 0 10.142 0 12 0C13.858 0 14.787 0 15.5643 0.123117C19.8433 0.800832 23.1992 4.15673 23.8769 8.43565C24 9.21298 24 10.142 24 12C24 13.858 24 14.787 23.8769 15.5643C23.1992 19.8433 19.8433 23.1992 15.5643 23.8769C14.787 24 13.858 24 12 24C10.142 24 9.21298 24 8.43565 23.8769C4.15673 23.1992 0.800832 19.8433 0.123117 15.5643C0 14.787 0 13.858 0 12Z" fill="#8C41FF"/>
<path d="M12.0002 9.12824V12L13.7951 13.7949" stroke="white" stroke-width="1.5" stroke-linecap="round" stroke-linejoin="round"/>
<path d="M6.49939 8.31768L5.96094 8.31984C5.9615 8.46178 6.01809 8.59775 6.11839 8.69818C6.21869 8.79861 6.35458 8.85538 6.49652 8.85614L6.49939 8.31768ZM8.3244 8.86475C8.39511 8.86508 8.46519 8.85148 8.53065 8.82473C8.5961 8.79797 8.65565 8.75859 8.70588 8.70882C8.75611 8.65905 8.79605 8.59988 8.82342 8.53468C8.85078 8.46948 8.86504 8.39952 8.86537 8.32881C8.8657 8.2581 8.8521 8.18802 8.82534 8.12256C8.79859 8.05711 8.7592 7.99756 8.70943 7.94733C8.65967 7.8971 8.60049 7.85716 8.53529 7.82979C8.47009 7.80243 8.40013 7.78817 8.32942 7.78784L8.3244 8.86475ZM7.02851 6.48694C7.02814 6.41622 7.01384 6.34628 6.98643 6.2811C6.95902 6.21591 6.91904 6.15676 6.86877 6.10703C6.81851 6.0573 6.75894 6.01795 6.69346 5.99124C6.62799 5.96453 6.5579 5.95097 6.48719 5.95135C6.41648 5.95173 6.34653 5.96603 6.28135 5.99344C6.21616 6.02085 6.15702 6.06083 6.10728 6.11109C6.05755 6.16136 6.0182 6.22093 5.99149 6.2864C5.96478 6.35187 5.95123 6.42197 5.9516 6.49268L7.02851 6.48694ZM6.13252 11.1277C6.14284 11.0573 6.13911 10.9856 6.12156 10.9167C6.104 10.8478 6.07296 10.783 6.03024 10.7261C5.98751 10.6693 5.93394 10.6214 5.87263 10.5854C5.81131 10.5494 5.74346 10.5258 5.673 10.5161C5.60253 10.5065 5.53085 10.5109 5.46209 10.529C5.39333 10.5472 5.32885 10.5789 5.27238 10.6221C5.21591 10.6653 5.16857 10.7193 5.13309 10.781C5.09761 10.8426 5.07469 10.9107 5.06567 10.9812L6.13252 11.1277ZM16.9268 7.07349C14.1842 4.33096 9.75238 4.30224 7.0278 7.02754L7.78881 7.78856C10.0862 5.49187 13.836 5.50551 16.1657 7.83451L16.9268 7.07349ZM7.07375 16.9265C9.81628 19.669 14.2481 19.6978 16.9727 16.9725L16.2117 16.2114C13.9143 18.5081 10.1645 18.4945 7.83476 16.1655L7.07375 16.9265ZM16.9727 16.9725C19.6973 14.2479 19.6693 9.81603 16.9268 7.07349L16.1657 7.83451C18.4947 10.1642 18.5084 13.914 16.2117 16.2114L16.9727 16.9725ZM7.0278 7.02754L6.11817 7.93646L6.8799 8.69747L7.78881 7.78856L7.0278 7.02754ZM6.49652 8.85614L8.3244 8.86475L8.32942 7.78784L6.50226 7.77923L6.49652 8.85614ZM7.03785 8.31481L7.02851 6.48694L5.9516 6.49268L5.96094 8.31984L7.03785 8.31481ZM5.06495 10.9805C4.91744 12.0593 5.022 13.1576 5.37042 14.1891C5.71883 15.2207 6.30162 16.1574 7.07303 16.9258L7.83404 16.1648C7.18016 15.5138 6.68613 14.7201 6.39077 13.846C6.09541 12.9718 6.00677 12.0411 6.13181 11.127L5.06495 10.9805Z" fill="white"/>
</svg>
