<svg width="24" height="24" viewBox="0 0 24 24" fill="none" xmlns="http://www.w3.org/2000/svg">
<path d="M0 12C0 10.142 0 9.21298 0.123117 8.43565C0.800832 4.15673 4.15673 0.800832 8.43565 0.123117C9.21298 0 10.142 0 12 0C13.858 0 14.787 0 15.5643 0.123117C19.8433 0.800832 23.1992 4.15673 23.8769 8.43565C24 9.21298 24 10.142 24 12C24 13.858 24 14.787 23.8769 15.5643C23.1992 19.8433 19.8433 23.1992 15.5643 23.8769C14.787 24 13.858 24 12 24C10.142 24 9.21298 24 8.43565 23.8769C4.15673 23.1992 0.800832 19.8433 0.123117 15.5643C0 14.787 0 13.858 0 12Z" fill="#FF4E4E"/>
<path d="M17.2935 8.50005C17.3311 8.28553 17.3212 8.06538 17.2647 7.85506C17.2082 7.64473 17.1063 7.44933 16.9662 7.28257C16.8261 7.11581 16.6512 6.98172 16.4538 6.88973C16.2564 6.79774 16.0413 6.75008 15.8235 6.75008H8.17679C7.959 6.75008 7.74385 6.79774 7.54644 6.88973C7.34903 6.98172 7.17415 7.11581 7.03406 7.28257C6.89398 7.44933 6.7921 7.64473 6.73557 7.85506C6.67903 8.06538 6.66921 8.28553 6.70681 8.50005M15.8501 6.75008C15.8697 6.56808 15.8802 6.47778 15.8802 6.40288C15.8809 6.05687 15.7535 5.72284 15.5225 5.46522C15.2916 5.2076 14.9733 5.04465 14.6293 5.0078C14.5551 5.0001 14.4641 5.0001 14.2821 5.0001H9.71817C9.53617 5.0001 9.44447 5.0001 9.37027 5.0078C9.02623 5.04465 8.70802 5.2076 8.47703 5.46522C8.24604 5.72284 8.11863 6.05687 8.11939 6.40288C8.11939 6.47778 8.12919 6.56878 8.14949 6.75008M5.26903 13.2551C4.95613 11.0403 4.80003 9.93363 5.46362 9.21614C6.12721 8.50005 7.3088 8.50005 9.67057 8.50005H14.3297C16.6915 8.50005 17.8731 8.50005 18.5366 9.21684C19.2002 9.93363 19.0434 11.0403 18.7312 13.2551L18.4358 15.3551C18.1909 17.091 18.0684 17.9597 17.4405 18.4798C16.8126 18.9999 15.8865 18.9999 14.0336 18.9999H9.96666C8.11449 18.9999 7.1877 18.9999 6.55981 18.4798C5.93192 17.9597 5.80942 17.0917 5.56442 15.3551L5.26903 13.2551Z" stroke="white"/>
<path d="M15.1501 12.7C15.73 12.7 16.2001 12.2299 16.2001 11.65C16.2001 11.0701 15.73 10.6 15.1501 10.6C14.5702 10.6 14.1001 11.0701 14.1001 11.65C14.1001 12.2299 14.5702 12.7 15.1501 12.7Z" stroke="white"/>
<path d="M17.6001 17.5999L15.5813 16.0957C14.9303 15.6113 13.9602 15.563 13.2434 15.9795L13.0572 16.088C12.5588 16.3778 11.8812 16.3295 11.4514 15.9732L8.76412 13.7493C8.22793 13.3055 7.36764 13.2817 6.79715 13.6947L5.87036 14.3667" stroke="white" stroke-linecap="round"/>
</svg>
