<svg width="24" height="24" viewBox="0 0 24 24" fill="none" xmlns="http://www.w3.org/2000/svg">
<path d="M0 12C0 10.142 0 9.21298 0.123117 8.43565C0.800832 4.15673 4.15673 0.800832 8.43565 0.123117C9.21298 0 10.142 0 12 0C13.858 0 14.787 0 15.5643 0.123117C19.8433 0.800832 23.1992 4.15673 23.8769 8.43565C24 9.21298 24 10.142 24 12C24 13.858 24 14.787 23.8769 15.5643C23.1992 19.8433 19.8433 23.1992 15.5643 23.8769C14.787 24 13.858 24 12 24C10.142 24 9.21298 24 8.43565 23.8769C4.15673 23.1992 0.800832 19.8433 0.123117 15.5643C0 14.787 0 13.858 0 12Z" fill="#FA712E"/>
<path d="M15.1111 15.4448C15.1111 16.5492 14.2399 17.4444 13.1666 17.4444C12.0933 17.4444 11.2222 16.5492 11.2222 15.4448C11.2222 14.3403 12.0933 13.4443 13.1666 13.4443C14.2399 13.4443 15.1111 14.3388 15.1111 15.4448ZM15.1111 15.4448V10.4444" stroke="white"/>
<path d="M17.1917 8.20136L15.8267 8.85625C15.5615 8.9838 15.4285 9.04758 15.332 9.14636C15.2553 9.22533 15.1961 9.31971 15.1586 9.42325C15.1111 9.55236 15.1111 9.69936 15.1111 9.99336C15.1111 10.6755 15.1111 11.0161 15.2597 11.2207C15.3773 11.3826 15.5528 11.4929 15.7497 11.5287C15.9978 11.5738 16.305 11.426 16.9195 11.132L18.2845 10.4764C18.5497 10.3488 18.6827 10.285 18.7791 10.187C18.8559 10.1081 18.915 10.0137 18.9526 9.91014C19 9.78103 19 9.63325 19 9.33847C19 8.65714 19 8.31569 18.8515 8.11114C18.7337 7.94955 18.5582 7.83953 18.3615 7.80391C18.1134 7.75803 17.8061 7.90503 17.1917 8.20058V8.20136Z" stroke="white" stroke-linecap="round"/>
<path d="M14.3333 6.55557H5M12.7778 9.66668H5M9.66667 12.7778H5M8.88889 15.8889H5" stroke="white" stroke-linecap="round"/>
</svg>
