<svg width="44" height="41" viewBox="0 0 44 41" fill="none" xmlns="http://www.w3.org/2000/svg">
<path d="M43.5 20.5C43.5 31.513 33.908 40.5 22 40.5C10.092 40.5 0.5 31.513 0.5 20.5C0.5 9.48697 10.092 0.5 22 0.5C33.908 0.5 43.5 9.48697 43.5 20.5Z" fill="#170F23" stroke="white"/>
<path d="M31.3125 18.5938H24.2812V11.5625C24.2812 10.6997 23.5815 10 22.7188 10H21.1562C20.2935 10 19.5938 10.6997 19.5938 11.5625V18.5938H12.5625C11.6997 18.5938 11 19.2935 11 20.1562V21.7188C11 22.5815 11.6997 23.2812 12.5625 23.2812H19.5938V30.3125C19.5938 31.1753 20.2935 31.875 21.1562 31.875H22.7188C23.5815 31.875 24.2812 31.1753 24.2812 30.3125V23.2812H31.3125C32.1753 23.2812 32.875 22.5815 32.875 21.7188V20.1562C32.875 19.2935 32.1753 18.5938 31.3125 18.5938Z" fill="white"/>
</svg>
