<svg width="22" height="22" viewBox="0 0 22 22" fill="none" xmlns="http://www.w3.org/2000/svg">
<path d="M18 18.5C18.465 18.5 18.697 18.5 18.891 18.47C19.4125 18.3873 19.8945 18.1416 20.2678 17.7682C20.6411 17.3947 20.8866 16.9126 20.969 16.391C21 16.197 21 15.965 21 15.5V6.5C21 6.035 21 5.803 20.97 5.609C20.8875 5.08713 20.6417 4.60482 20.268 4.23131C19.8943 3.85779 19.4119 3.61228 18.89 3.53C18.697 3.5 18.465 3.5 18 3.5M4 18.5C3.535 18.5 3.303 18.5 3.109 18.47C2.58713 18.3875 2.10482 18.1417 1.73131 17.768C1.35779 17.3943 1.11228 16.9119 1.03 16.39C1 16.197 1 15.965 1 15.5V6.5C1 6.035 1 5.803 1.03 5.609C1.11253 5.08713 1.35828 4.60482 1.73197 4.23131C2.10567 3.85779 2.58809 3.61228 3.11 3.53C3.303 3.5 3.535 3.5 4 3.5M4 7C4 4.172 4 2.757 4.879 1.879C5.757 1 7.172 1 10 1H12C14.828 1 16.243 1 17.121 1.879C18 2.757 18 4.172 18 7V15C18 17.828 18 19.243 17.121 20.121C16.243 21 14.828 21 12 21H10C7.172 21 5.757 21 4.879 20.121C4 19.243 4 17.828 4 15V7Z" stroke="#666276"/>
<path d="M11 14C11 14.5304 10.7893 15.0391 10.4142 15.4142C10.0391 15.7893 9.53043 16 9 16C8.46957 16 7.96086 15.7893 7.58579 15.4142C7.21071 15.0391 7 14.5304 7 14C7 13.4696 7.21071 12.9609 7.58579 12.5858C7.96086 12.2107 8.46957 12 9 12C9.53043 12 10.0391 12.2107 10.4142 12.5858C10.7893 12.9609 11 13.4696 11 14ZM11 14V9" stroke="#666276"/>
<path d="M13.058 6.971L11.742 7.629C11.6199 7.6837 11.5028 7.74894 11.392 7.824C11.1972 7.97327 11.0641 8.18895 11.018 8.43C11 8.523 11 8.625 11 8.83C11 9.315 11 9.558 11.06 9.723C11.1369 9.93473 11.283 10.1143 11.4746 10.2326C11.6663 10.351 11.8923 10.4011 12.116 10.375C12.29 10.355 12.507 10.246 12.942 10.029L14.258 9.371C14.441 9.28 14.532 9.234 14.608 9.177C14.803 9.02749 14.9361 8.81141 14.982 8.57C15 8.477 15 8.375 15 8.171C15 7.685 15 7.443 14.94 7.278C14.8633 7.06609 14.7173 6.88629 14.5256 6.76777C14.3339 6.64924 14.1078 6.59893 13.884 6.625C13.71 6.645 13.493 6.754 13.058 6.971Z" stroke="#666276" stroke-linecap="round"/>
</svg>
