<svg width="35" height="22" viewBox="0 0 35 22" fill="none" xmlns="http://www.w3.org/2000/svg">
<path d="M10.9747 14C12.7366 14 14.1648 12.6569 14.1648 11C14.1648 9.34315 12.7366 8 10.9747 8C9.21291 8 7.78467 9.34315 7.78467 11C7.78467 12.6569 9.21291 14 10.9747 14Z" stroke="#63646F" stroke-width="1.5"/>
<path d="M2.10741 9.64C2.61038 9.936 2.93364 10.442 2.93364 11C2.93364 11.558 2.61038 12.064 2.10741 12.36C1.76607 12.563 1.54489 12.724 1.38858 12.916C1.21854 13.1244 1.09383 13.3623 1.02158 13.6161C0.94933 13.8699 0.93095 14.1345 0.967492 14.395C1.02279 14.789 1.27055 15.193 1.76501 16C2.2616 16.807 2.50936 17.21 2.84432 17.453C3.06596 17.6129 3.31893 17.7302 3.58878 17.7981C3.85863 17.8661 4.14007 17.8834 4.41702 17.849C4.67223 17.817 4.93062 17.719 5.28791 17.541C5.5436 17.4094 5.83067 17.3411 6.12215 17.3425C6.41362 17.3439 6.69994 17.415 6.95419 17.549C7.46779 17.829 7.77297 18.344 7.79424 18.902C7.80913 19.282 7.84741 19.542 7.9463 19.765C8.05318 20.0078 8.2099 20.2284 8.4075 20.4143C8.6051 20.6001 8.83971 20.7475 9.09791 20.848C9.48816 21 9.98369 21 10.9747 21C11.9658 21 12.4613 21 12.8516 20.848C13.1098 20.7475 13.3444 20.6001 13.542 20.4143C13.7396 20.2284 13.8963 20.0078 14.0032 19.765C14.101 19.542 14.1403 19.282 14.1552 18.902C14.1765 18.344 14.4817 17.828 14.9953 17.549C15.2495 17.415 15.5359 17.3439 15.8273 17.3425C16.1188 17.3411 16.4059 17.4094 16.6616 17.541C17.0189 17.719 17.2783 17.817 17.5335 17.849C18.0925 17.9181 18.6578 17.7757 19.1052 17.453C19.4401 17.211 19.6879 16.807 20.1834 16C20.4046 15.64 20.5758 15.361 20.7034 15.127M19.8421 12.361C19.5931 12.2187 19.3867 12.0192 19.2422 11.7814C19.0976 11.5435 19.0198 11.275 19.0158 11.001C19.0158 10.442 19.3391 9.936 19.8421 9.639C20.1834 9.437 20.4035 9.276 20.5609 9.084C20.7309 8.87556 20.8556 8.63767 20.9279 8.38389C21.0001 8.13012 21.0185 7.86545 20.982 7.605C20.9267 7.211 20.6789 6.807 20.1845 6C19.6879 5.193 19.4401 4.79 19.1052 4.547C18.8835 4.38709 18.6305 4.26981 18.3607 4.20187C18.0908 4.13392 17.8094 4.11664 17.5325 4.151C17.2772 4.183 17.0189 4.281 16.6605 4.459C16.4049 4.59042 16.1181 4.65862 15.8268 4.65722C15.5355 4.65582 15.2494 4.58486 14.9953 4.451C14.7448 4.31091 14.5363 4.11324 14.3894 3.87657C14.2424 3.6399 14.1619 3.37199 14.1552 3.098C14.1403 2.718 14.1021 2.458 14.0032 2.235C13.8963 1.99218 13.7396 1.77155 13.542 1.58572C13.3444 1.3999 13.1098 1.25251 12.8516 1.152C12.4613 1 11.9658 1 10.9747 1C9.98369 1 9.48816 1 9.09791 1.152C8.83971 1.25251 8.6051 1.3999 8.4075 1.58572C8.2099 1.77155 8.05318 1.99218 7.9463 2.235C7.84847 2.458 7.80913 2.718 7.79424 3.098C7.78761 3.37199 7.70704 3.6399 7.5601 3.87657C7.41316 4.11324 7.20466 4.31091 6.95419 4.451C6.69994 4.58504 6.41362 4.6561 6.12215 4.6575C5.83067 4.6589 5.5436 4.59059 5.28791 4.459C4.93062 4.281 4.67116 4.183 4.41596 4.151C3.85697 4.08187 3.29167 4.22431 2.84432 4.547C2.51042 4.79 2.2616 5.193 1.76607 6C1.54489 6.36 1.37369 6.639 1.24609 6.873" stroke="#63646F" stroke-width="1.5" stroke-linecap="round"/>
<path d="M26.4924 8.5H33.5077C33.7846 8.49973 34.056 8.55225 34.2905 8.65148C34.5249 8.75071 34.7128 8.89259 34.8324 9.06071C34.9724 9.26018 35.0263 9.4821 34.988 9.70119C34.9497 9.92027 34.8207 10.1277 34.6158 10.2999L31.1081 13.1595C30.9705 13.2664 30.8003 13.3521 30.6091 13.4108C30.4179 13.4696 30.2102 13.5 30 13.5C29.7898 13.5 29.5821 13.4696 29.3909 13.4108C29.1997 13.3521 29.0295 13.2664 28.8919 13.1595L25.3842 10.2999C25.1793 10.1277 25.0503 9.92027 25.012 9.70119C24.9737 9.4821 25.0276 9.26018 25.1676 9.06071C25.2872 8.89259 25.4751 8.75071 25.7095 8.65148C25.944 8.55225 26.2154 8.49973 26.4924 8.5Z" fill="#63646F"/>
</svg>
