<svg width="24" height="24" viewBox="0 0 24 24" fill="none" xmlns="http://www.w3.org/2000/svg">
<path d="M18.8333 7.4C18.8333 5.70261 18.1661 4.07475 16.9783 2.87452C15.7906 1.67428 14.1797 1 12.5 1C10.8203 1 9.20939 1.67428 8.02166 2.87452C6.83393 4.07475 6.16667 5.70261 6.16667 7.4C6.16667 14.8667 3 17 3 17H22C22 17 18.8333 14.8667 18.8333 7.4Z" stroke="#63646F" stroke-width="2" stroke-linecap="round" stroke-linejoin="round"/>
<path d="M15.3 20C15.046 20.9125 14.6813 21.6699 14.2426 22.1964C13.8038 22.7229 13.3064 23 12.8 23C12.2937 23 11.7963 22.7229 11.3575 22.1964C10.9188 21.6699 10.5541 20.9125 10.3 20" stroke="#63646F" stroke-width="2" stroke-linecap="round" stroke-linejoin="round"/>
</svg>
