<svg width="88" height="88" viewBox="0 0 88 88" fill="none" xmlns="http://www.w3.org/2000/svg">
<g filter="url(#filter0_d_101_48)">
<rect x="4" width="80" height="80" rx="40" fill="white"/>
</g>
<path d="M45 22.25C48.4375 22.25 51.25 25.0625 51.25 28.5C51.25 31.9375 48.4375 34.75 45 34.75C41.5625 34.75 38.75 31.9375 38.75 28.5C38.75 25.0625 41.5625 22.25 45 22.25ZM45 53.5C53.4375 53.5 63.125 57.5312 63.75 59.75H26.25C26.9688 57.5 36.5938 53.5 45 53.5ZM45 16C38.0938 16 32.5 21.5938 32.5 28.5C32.5 35.4062 38.0938 41 45 41C51.9062 41 57.5 35.4062 57.5 28.5C57.5 21.5938 51.9062 16 45 16ZM45 47.25C36.6562 47.25 20 51.4375 20 59.75V66H70V59.75C70 51.4375 53.3438 47.25 45 47.25Z" fill="#7235FF" fill-opacity="0.78"/>
<path d="M45 22.25C48.4375 22.25 51.25 25.0625 51.25 28.5C51.25 31.9375 48.4375 34.75 45 34.75C41.5625 34.75 38.75 31.9375 38.75 28.5C38.75 25.0625 41.5625 22.25 45 22.25ZM45 53.5C53.4375 53.5 63.125 57.5312 63.75 59.75H26.25C26.9688 57.5 36.5938 53.5 45 53.5ZM45 16C38.0938 16 32.5 21.5938 32.5 28.5C32.5 35.4062 38.0938 41 45 41C51.9062 41 57.5 35.4062 57.5 28.5C57.5 21.5938 51.9062 16 45 16ZM45 47.25C36.6562 47.25 20 51.4375 20 59.75V66H70V59.75C70 51.4375 53.3438 47.25 45 47.25Z" fill="#A64040" fill-opacity="0.2"/>
<defs>
<filter id="filter0_d_101_48" x="0" y="0" width="88" height="88" filterUnits="userSpaceOnUse" color-interpolation-filters="sRGB">
<feFlood flood-opacity="0" result="BackgroundImageFix"/>
<feColorMatrix in="SourceAlpha" type="matrix" values="0 0 0 0 0 0 0 0 0 0 0 0 0 0 0 0 0 0 127 0" result="hardAlpha"/>
<feOffset dy="4"/>
<feGaussianBlur stdDeviation="2"/>
<feComposite in2="hardAlpha" operator="out"/>
<feColorMatrix type="matrix" values="0 0 0 0 0 0 0 0 0 0 0 0 0 0 0 0 0 0 0.25 0"/>
<feBlend mode="normal" in2="BackgroundImageFix" result="effect1_dropShadow_101_48"/>
<feBlend mode="normal" in="SourceGraphic" in2="effect1_dropShadow_101_48" result="shape"/>
</filter>
</defs>
</svg>
