<svg xmlns="http://www.w3.org/2000/svg" width="18" height="18" viewBox="0 0 18 18" fill="none">
<path d="M9.00049 5.30762V8.99988L11.3082 11.3075" stroke="#666276" stroke-width="1.5" stroke-linecap="round" stroke-linejoin="round"/>
<path d="M1.92779 4.26561L1.23549 4.26838C1.23622 4.45087 1.30897 4.6257 1.43793 4.75483C1.56688 4.88395 1.74161 4.95694 1.9241 4.95791L1.92779 4.26561ZM4.27423 4.96899C4.36514 4.96941 4.45525 4.95193 4.5394 4.91753C4.62356 4.88313 4.70012 4.83249 4.7647 4.7685C4.82929 4.70452 4.88064 4.62844 4.91582 4.54461C4.95101 4.46078 4.96933 4.37083 4.96976 4.27992C4.97018 4.18901 4.95269 4.0989 4.91829 4.01474C4.8839 3.93059 4.83326 3.85403 4.76927 3.78944C4.70529 3.72486 4.6292 3.67351 4.54537 3.63832C4.46154 3.60314 4.3716 3.58481 4.28069 3.58439L4.27423 4.96899ZM2.60809 1.91179C2.60761 1.82088 2.58922 1.73095 2.55398 1.64714C2.51874 1.56333 2.46734 1.48729 2.40271 1.42335C2.33808 1.3594 2.26149 1.30881 2.17731 1.27447C2.09313 1.24013 2.00301 1.2227 1.9121 1.22319C1.82118 1.22367 1.73126 1.24206 1.64745 1.2773C1.56364 1.31254 1.48759 1.36394 1.42365 1.42857C1.35971 1.4932 1.30912 1.56979 1.27478 1.65397C1.24043 1.73814 1.22301 1.82826 1.22349 1.91918L2.60809 1.91179ZM1.4561 7.8785C1.46937 7.78802 1.46458 7.69581 1.442 7.60719C1.41943 7.51857 1.37953 7.4353 1.32459 7.3622C1.26966 7.28909 1.20079 7.22759 1.12195 7.18125C1.04311 7.13491 0.955879 7.10464 0.865283 7.09221C0.774686 7.07977 0.682522 7.0854 0.594115 7.10879C0.505708 7.13217 0.42281 7.17283 0.350207 7.22843C0.277604 7.28403 0.216736 7.35346 0.171118 7.43272C0.1255 7.51198 0.0960355 7.59948 0.0844268 7.69019L1.4561 7.8785ZM15.3344 2.66594C11.8083 -0.860175 6.11021 -0.897098 2.60717 2.60686L3.58562 3.58531C6.53943 0.632424 11.3606 0.649962 14.356 3.64439L15.3344 2.66594ZM2.66624 15.3341C6.19236 18.8602 11.8904 18.8971 15.3935 15.3932L14.415 14.4147C11.4612 17.3676 6.64005 17.3501 3.64469 14.3557L2.66624 15.3341ZM15.3935 15.3932C18.8965 11.8901 18.8605 6.19205 15.3344 2.66594L14.356 3.64439C17.3504 6.63974 17.3679 11.4609 14.415 14.4147L15.3935 15.3932ZM2.60717 2.60686L1.43764 3.77547L2.41702 4.75392L3.58562 3.58531L2.60717 2.60686ZM1.9241 4.95791L4.27423 4.96899L4.28069 3.58439L1.93148 3.57331L1.9241 4.95791ZM2.62009 4.26192L2.60809 1.91179L1.22349 1.91918L1.23549 4.26838L2.62009 4.26192ZM0.0835036 7.68927C-0.106149 9.07625 0.0282848 10.4883 0.47625 11.8146C0.924215 13.1409 1.67352 14.3453 2.66532 15.3332L3.64377 14.3547C2.80306 13.5178 2.16788 12.4973 1.78814 11.3734C1.40839 10.2495 1.29442 9.05292 1.45518 7.87757L0.0835036 7.68927Z" fill="#666276"/>
</svg>