<svg width="30" height="30" viewBox="0 0 30 30" fill="none" xmlns="http://www.w3.org/2000/svg">
<path d="M15 12.5C17.0711 12.5 18.75 10.8211 18.75 8.75C18.75 6.67893 17.0711 5 15 5C12.9289 5 11.25 6.67893 11.25 8.75C11.25 10.8211 12.9289 12.5 15 12.5Z" stroke="#F5F5F5" stroke-width="2"/>
<path d="M22.5 25C23.8807 25 25 23.8807 25 22.5C25 21.1193 23.8807 20 22.5 20C21.1193 20 20 21.1193 20 22.5C20 23.8807 21.1193 25 22.5 25Z" stroke="#F5F5F5" stroke-width="2" stroke-linecap="round" stroke-linejoin="round"/>
<path d="M15.4262 25H7.5C6.83696 25 6.20107 24.7366 5.73223 24.2678C5.26339 23.7989 5 23.163 5 22.5C5 21.1739 5.52678 19.9021 6.46447 18.9645C7.40215 18.0268 8.67392 17.5 10 17.5H16.91M25 22.5V13.75L27.5 16.25" stroke="#F5F5F5" stroke-width="2" stroke-linecap="round" stroke-linejoin="round"/>
</svg>
