<svg width="100" height="75" viewBox="0 0 100 75" fill="none" xmlns="http://www.w3.org/2000/svg">
<path fill-rule="evenodd" clip-rule="evenodd" d="M75 21.5625L94.6875 10.4688C95.1904 10.1397 95.7708 9.94826 96.3708 9.9135C96.9707 9.87875 97.5693 10.0019 98.1069 10.2707C98.6444 10.5394 99.1021 10.9444 99.4342 11.4453C99.7664 11.9461 99.9615 12.5253 100 13.125V61.7812C99.9666 62.3837 99.7753 62.9667 99.4452 63.4718C99.1151 63.9768 98.6579 64.3861 98.1195 64.6584C97.5811 64.9308 96.9805 65.0566 96.3781 65.0233C95.7756 64.99 95.1926 64.7988 94.6875 64.4688L75 53.375V68.75C75 70.4076 74.3415 71.9973 73.1694 73.1694C71.9973 74.3415 70.4076 75 68.75 75H12.5C9.18479 75 6.00537 73.683 3.66117 71.3388C1.31696 68.9946 0 65.8152 0 62.5V12.5C0 9.18479 1.31696 6.00537 3.66117 3.66116C6.00537 1.31696 9.18479 0 12.5 0H68.75C70.4076 0 71.9973 0.65848 73.1694 1.83058C74.3415 3.00268 75 4.5924 75 6.25V21.5625ZM37.3925 17.1667L37.0079 17.1898L37.0002 17.1937L37.3925 17.1667ZM37.3925 17.1667L37.0041 17.1937C36.3128 17.2876 35.6789 17.6289 35.22 18.1543C34.761 18.6798 34.5081 19.3537 34.5079 20.0514V22.9321L21.0464 22.936C19.9096 22.9355 18.7839 23.1589 17.7335 23.5936C16.6831 24.0283 15.7287 24.6656 14.9247 25.4693C14.1207 26.2729 13.4829 27.2271 13.0478 28.2773C12.6126 29.3274 12.3887 30.4531 12.3887 31.5898V48.9129C12.3887 51.208 13.3004 53.4092 14.9233 55.0321C16.5462 56.655 18.7474 57.5667 21.0425 57.5667H53.7348C56.03 57.5667 58.2311 56.655 59.854 55.0321C61.4769 53.4092 62.3887 51.208 62.3887 48.9129V31.586C62.3887 29.2908 61.4769 27.0897 59.854 25.4668C58.2311 23.8439 56.03 22.9321 53.7348 22.9321H40.2733L40.2771 20.0514L40.2502 19.6591C40.1554 18.9685 39.8137 18.3356 39.2884 17.8774C38.7631 17.4192 38.0896 17.1668 37.3925 17.1667ZM26.8368 34.7834C27.4422 34.5536 28.0878 34.4485 28.7348 34.4744C29.9756 34.5241 31.1491 35.0519 32.0094 35.9474C32.8698 36.8429 33.3502 38.0365 33.3502 39.2783C33.3502 40.5201 32.8698 41.7137 32.0094 42.6092C31.1491 43.5046 29.9756 44.0325 28.7348 44.0821C28.0878 44.108 27.4422 44.0029 26.8368 43.7732C26.2314 43.5435 25.6786 43.1938 25.2117 42.7451C24.7447 42.2965 24.3732 41.7582 24.1194 41.1624C23.8657 40.5667 23.7349 39.9258 23.7349 39.2783C23.7349 38.6307 23.8657 37.9899 24.1194 37.3941C24.3732 36.7984 24.7447 36.2601 25.2117 35.8114C25.6786 35.3628 26.2314 35.0131 26.8368 34.7834ZM44.1176 34.7834C44.723 34.5536 45.3686 34.4485 46.0156 34.4744C47.2564 34.5241 48.4298 35.0519 49.2902 35.9474C50.1505 36.8429 50.631 38.0365 50.631 39.2783C50.631 40.5201 50.1505 41.7137 49.2902 42.6092C48.4298 43.5046 47.2564 44.0325 46.0156 44.0821C45.3686 44.108 44.723 44.0029 44.1176 43.7732C43.5121 43.5435 42.9594 43.1938 42.4924 42.7451C42.0255 42.2965 41.654 41.7582 41.4002 41.1624C41.1464 40.5667 41.0156 39.9258 41.0156 39.2783C41.0156 38.6307 41.1464 37.9899 41.4002 37.3941C41.654 36.7984 42.0255 36.2601 42.4924 35.8114C42.9594 35.3628 43.5121 35.0131 44.1176 34.7834Z" fill="#DC2626"/>
</svg>
