<svg width="51" height="50" viewBox="0 0 51 50" fill="none" xmlns="http://www.w3.org/2000/svg">
<path d="M20.1103 35C20.8205 35 21.4163 34.76 21.8976 34.28C22.3789 33.8 22.6187 33.2067 22.617 32.5V17.5C22.617 16.7917 22.3764 16.1975 21.8951 15.7175C21.4138 15.2375 20.8188 14.9983 20.1103 15C19.4 15 18.8043 15.24 18.323 15.72C17.8417 16.2 17.6019 16.7933 17.6036 17.5V32.5C17.6036 33.2083 17.8442 33.8025 18.3255 34.2825C18.8068 34.7625 19.4017 35.0017 20.1103 35ZM30.1372 35C30.8474 35 31.4432 34.76 31.9245 34.28C32.4057 33.8 32.6456 33.2067 32.6439 32.5V17.5C32.6439 16.7917 32.4032 16.1975 31.9219 15.7175C31.4407 15.2375 30.8457 14.9983 30.1372 15C29.4269 15 28.8312 15.24 28.3499 15.72C27.8686 16.2 27.6288 16.7933 27.6304 17.5V32.5C27.6304 33.2083 27.8711 33.8025 28.3524 34.2825C28.8337 34.7625 29.4286 35.0017 30.1372 35ZM25.1237 50C21.6561 50 18.3974 49.3433 15.3475 48.03C12.2977 46.7167 9.64472 44.9358 7.38868 42.6875C5.13263 40.4375 3.34701 37.7917 2.03181 34.75C0.716622 31.7083 0.0581897 28.4583 0.0565186 25C0.0565186 21.5417 0.714951 18.2917 2.03181 15.25C3.34868 12.2083 5.1343 9.5625 7.38868 7.3125C9.64472 5.0625 12.2977 3.28167 15.3475 1.97C18.3974 0.658334 21.6561 0.00166667 25.1237 0C28.5914 0 31.8501 0.656667 34.8999 1.97C37.9498 3.28333 40.6027 5.06417 42.8588 7.3125C45.1148 9.5625 46.9013 12.2083 48.2181 15.25C49.535 18.2917 50.1926 21.5417 50.1909 25C50.1909 28.4583 49.5325 31.7083 48.2156 34.75C46.8988 37.7917 45.1132 40.4375 42.8588 42.6875C40.6027 44.9375 37.9498 46.7192 34.8999 48.0325C31.8501 49.3458 28.5914 50.0017 25.1237 50ZM25.1237 45C30.7221 45 35.4639 43.0625 39.3494 39.1875C43.2348 35.3125 45.1775 30.5833 45.1775 25C45.1775 19.4167 43.2348 14.6875 39.3494 10.8125C35.4639 6.9375 30.7221 5 25.1237 5C19.5254 5 14.7835 6.9375 10.8981 10.8125C7.01267 14.6875 5.06996 19.4167 5.06996 25C5.06996 30.5833 7.01267 35.3125 10.8981 39.1875C14.7835 43.0625 19.5254 45 25.1237 45Z" fill="white"/>
</svg>
