<svg width="30" height="30" viewBox="0 0 30 30" fill="none" xmlns="http://www.w3.org/2000/svg">
<g clip-path="url(#clip0_101_62)">
<path d="M26.25 3.75H3.75C2.375 3.75 1.25 4.875 1.25 6.25V23.75C1.25 25.125 2.375 26.25 3.75 26.25H26.25C27.625 26.25 28.75 25.125 28.75 23.75V6.25C28.75 4.875 27.625 3.75 26.25 3.75ZM26.25 23.75H3.75V6.25H26.25V23.75ZM10 18.75C10 16.675 11.675 15 13.75 15C14.1875 15 14.6125 15.0875 15 15.225V7.5H21.25V10H17.5V18.7875C17.475 20.8375 15.8125 22.5 13.75 22.5C11.675 22.5 10 20.825 10 18.75Z" fill="#F5F5F5"/>
</g>
<defs>
<clipPath id="clip0_101_62">
<rect width="30" height="30" fill="white"/>
</clipPath>
</defs>
</svg>
