<svg width="22" height="22" viewBox="0 0 22 22" fill="none" xmlns="http://www.w3.org/2000/svg">
<path d="M11 21C16.5228 21 21 16.5228 21 11C21 5.47715 16.5228 1 11 1C5.47715 1 1 5.47715 1 11C1 16.5228 5.47715 21 11 21Z" stroke="black" stroke-width="1.5"/>
<path d="M7 8.5C7 8.034 7 7.801 7.076 7.617C7.17771 7.37246 7.37227 7.17826 7.617 7.077C7.801 7 8.034 7 8.5 7C8.966 7 9.199 7 9.383 7.076C9.62754 7.17771 9.82174 7.37227 9.923 7.617C10 7.801 10 8.034 10 8.5V13.5C10 13.966 10 14.199 9.924 14.383C9.82229 14.6275 9.62773 14.8217 9.383 14.923C9.199 15 8.966 15 8.5 15C8.034 15 7.801 15 7.617 14.924C7.37246 14.8223 7.17826 14.6277 7.077 14.383C7 14.199 7 13.966 7 13.5V8.5ZM12 8.5C12 8.034 12 7.801 12.076 7.617C12.1777 7.37246 12.3723 7.17826 12.617 7.077C12.801 7 13.034 7 13.5 7C13.966 7 14.199 7 14.383 7.076C14.6275 7.17771 14.8217 7.37227 14.923 7.617C15 7.801 15 8.034 15 8.5V13.5C15 13.966 15 14.199 14.924 14.383C14.8223 14.6275 14.6277 14.8217 14.383 14.923C14.199 15 13.966 15 13.5 15C13.034 15 12.801 15 12.617 14.924C12.3725 14.8223 12.1783 14.6277 12.077 14.383C12 14.199 12 13.966 12 13.5V8.5Z" stroke="black" stroke-width="1.5"/>
</svg>
