<svg width="20" height="20" viewBox="0 0 20 20" fill="none" xmlns="http://www.w3.org/2000/svg">
<path d="M4.15002 13.15C4.15002 12.3013 4.15002 11.8774 4.41372 11.6137C4.67742 11.35 5.10132 11.35 5.95002 11.35H6.85002C7.69872 11.35 8.12262 11.35 8.38632 11.6137C8.65002 11.8774 8.65002 12.3013 8.65002 13.15V14.05C8.65002 14.8987 8.65002 15.3226 8.38632 15.5863C8.12262 15.85 7.69872 15.85 6.85002 15.85C5.57742 15.85 4.94112 15.85 4.54602 15.454" stroke="#666276" stroke-linecap="round"/>
<path d="M4.15002 6.85C4.15002 5.5774 4.15002 4.9411 4.54602 4.546C4.94112 4.15 5.57742 4.15 6.85002 4.15C7.69872 4.15 8.12262 4.15 8.38632 4.4137C8.65002 4.6774 8.65002 5.1013 8.65002 5.95V6.85C8.65002 7.6987 8.65002 8.1226 8.38632 8.3863C8.12262 8.65 7.69872 8.65 6.85002 8.65H5.95002C5.10132 8.65 4.67742 8.65 4.41372 8.3863C4.15002 8.1226 4.15002 7.6987 4.15002 6.85ZM11.35 13.15C11.35 12.3013 11.35 11.8774 11.6137 11.6137C11.8774 11.35 12.3013 11.35 13.15 11.35H14.05C14.8987 11.35 15.3226 11.35 15.5863 11.6137C15.85 11.8774 15.85 12.3013 15.85 13.15C15.85 14.4226 15.85 15.0589 15.454 15.454C15.0589 15.85 14.4226 15.85 13.15 15.85C12.3013 15.85 11.8774 15.85 11.6137 15.5863C11.35 15.3226 11.35 14.8987 11.35 14.05V13.15Z" stroke="#666276"/>
<path d="M15.85 6.85C15.85 7.6987 15.85 8.1226 15.5863 8.3863C15.3226 8.65 14.8987 8.65 14.05 8.65H13.15C12.3013 8.65 11.8774 8.65 11.6137 8.3863C11.35 8.1226 11.35 7.6987 11.35 6.85V5.95C11.35 5.1013 11.35 4.6774 11.6137 4.4137C11.8774 4.15 12.3013 4.15 13.15 4.15C14.4226 4.15 15.0589 4.15 15.454 4.546M19 11.8V12.7M11.8 19C15.1939 19 16.8913 19 17.9452 17.9452C18.5338 17.3575 18.7939 16.57 18.9082 15.4M8.2 19C4.8061 19 3.1087 19 2.0548 17.9452C1 16.8913 1 15.1939 1 11.8M8.2 1C4.8061 1 3.1087 1 2.0548 2.0548C1.4662 2.6425 1.2061 3.43 1.0918 4.6M1 8.2V7.3" stroke="#666276" stroke-linecap="round"/>
<path d="M11.8 1C15.1939 1 16.8913 1 17.9452 2.0548C19 3.1087 19 4.8061 19 8.2" stroke="#666276" stroke-linecap="round"/>
</svg>
