<svg width="22" height="22" viewBox="0 0 22 22" fill="none" xmlns="http://www.w3.org/2000/svg">
<path d="M5.94251 11.0941C5.8379 5.50779 8.01872 0.936934 10.8116 0.884912C13.0632 0.842407 15.0269 3.75074 15.757 7.80682M16.0575 10.9057C16.1616 16.4926 13.9813 21.0628 11.1884 21.1149C8.9385 21.1568 6.97777 18.2557 6.2449 14.2059M21.115 10.8115C21.1676 13.6049 16.6811 15.9533 11.0948 16.0579C5.50733 16.1614 0.937049 13.9812 0.885028 11.1883C0.842522 8.9367 3.75085 6.97301 7.80694 6.24284C8.83029 6.06068 9.86651 5.96022 10.9058 5.9424C16.4927 5.83834 21.063 8.01861 21.115 10.8115Z" stroke="#666276" stroke-linecap="round"/>
</svg>
