<svg width="22" height="22" viewBox="0 0 22 22" fill="none" xmlns="http://www.w3.org/2000/svg">
<path d="M17.949 18.5C18.414 18.5 18.646 18.5 18.84 18.47C19.3615 18.3873 19.8435 18.1416 20.2168 17.7682C20.5901 17.3947 20.8356 16.9126 20.918 16.391C20.949 16.197 20.949 15.965 20.949 15.5V6.5C20.949 6.035 20.949 5.803 20.919 5.609C20.8364 5.08713 20.5907 4.60482 20.217 4.23131C19.8433 3.85779 19.3609 3.61228 18.839 3.53C18.646 3.5 18.414 3.5 17.949 3.5M3.94897 18.5C3.48397 18.5 3.25197 18.5 3.05797 18.47C2.5361 18.3875 2.0538 18.1417 1.68028 17.768C1.30677 17.3943 1.06125 16.9119 0.978975 16.39C0.948975 16.197 0.948975 15.965 0.948975 15.5V6.5C0.948975 6.035 0.948975 5.803 0.978975 5.609C1.0615 5.08713 1.30725 4.60482 1.68095 4.23131C2.05464 3.85779 2.53706 3.61228 3.05897 3.53C3.25197 3.5 3.48397 3.5 3.94897 3.5M3.94897 7C3.94897 4.172 3.94897 2.757 4.82797 1.879C5.70597 1 7.12097 1 9.94897 1H11.949C14.777 1 16.192 1 17.07 1.879C17.949 2.757 17.949 4.172 17.949 7V15C17.949 17.828 17.949 19.243 17.07 20.121C16.192 21 14.777 21 11.949 21H9.94897C7.12097 21 5.70597 21 4.82797 20.121C3.94897 19.243 3.94897 17.828 3.94897 15V7Z" stroke="#63646F" stroke-width="1.5"/>
</svg>
