<svg width="22" height="16" viewBox="0 0 22 16" fill="none" xmlns="http://www.w3.org/2000/svg">
<path d="M7 4.5C7 2.84917 7 2.02433 7.44 1.51333C7.879 1 8.586 1 10 1H12C13.415 1 14.122 1 14.56 1.51333C15 2.0255 15 2.85033 15 4.5V15V11.5C15 9.84917 15 9.02433 15.44 8.51333C15.879 8 16.585 8 18 8C19.415 8 20.122 8 20.56 8.51333C21 9.0255 21 9.85033 21 11.5V15M7 9.16667V15C7 13.3503 7 12.5255 6.56 12.0133C6.122 11.5 5.415 11.5 4 11.5C2.585 11.5 1.879 11.5 1.44 12.0133C1 12.5243 1 13.3492 1 15" stroke="#666276" stroke-linecap="round"/>
</svg>
