<svg width="22" height="19" viewBox="0 0 22 19" fill="none" xmlns="http://www.w3.org/2000/svg">
<path d="M1.035 8.13031C1.108 6.92231 1.145 6.31731 1.459 5.73631C1.77713 5.17353 2.25825 4.7203 2.839 4.43631C3.44 4.15931 4.127 4.15931 5.5 4.15931C6.012 4.15931 6.268 4.15931 6.516 4.11731C6.76129 4.07577 7.00046 4.00389 7.228 3.90331C7.458 3.80231 7.672 3.66131 8.099 3.37931L8.319 3.23531C10.86 1.55831 12.132 0.71931 13.2 1.08431C13.405 1.15431 13.603 1.25431 13.78 1.37931C14.702 2.02731 14.773 3.53631 14.913 6.55331C14.9587 7.42134 14.9877 8.29017 15 9.15931C15 9.69131 14.965 10.6473 14.913 11.7643C14.773 14.7823 14.703 16.2903 13.78 16.9393C13.6016 17.0646 13.4063 17.164 13.2 17.2343C12.133 17.5983 10.861 16.7603 8.318 15.0833L8.1 14.9393C7.673 14.6573 7.46 14.5163 7.229 14.4143C7.00141 14.3141 6.76224 14.2425 6.517 14.2013C6.268 14.1593 6.012 14.1593 5.5 14.1593C4.126 14.1593 3.44 14.1593 2.84 13.8823C2.25888 13.5985 1.77739 13.1452 1.459 12.5823C1.145 12.0003 1.109 11.3963 1.035 10.1873C1.01297 9.84508 1.00129 9.50225 1 9.15931C1 8.83631 1.013 8.48831 1.035 8.13031Z" stroke="black" stroke-width="1.5"/>
<path d="M19.5 3.15931C19.5 3.15931 21 4.95931 21 9.15931C21 13.3593 19.5 15.1593 19.5 15.1593M17.5 6.15931C17.5 6.15931 18 7.05931 18 9.15931C18 11.2593 17.5 12.1593 17.5 12.1593" stroke="black" stroke-width="1.5" stroke-linecap="round"/>
</svg>
